<svg xmlns="http://www.w3.org/2000/svg" width="192" height="192" viewBox="0 0 192 192">
  <rect width="192" height="192" rx="32" fill="#070b16"/>
  <path d="M96 40c-14 0-26 8-32 20-6-4-13-6-20-4-8 2-14 9-15 17-1 5 0 10 3 14-5 4-8 10-8 17 0 14 12 26 26 26h76c14 0 26-12 26-26 0-7-3-13-8-17 3-4 4-9 3-14-1-8-7-15-15-17-7-2-14 0-20 4-6-12-18-20-32-20z" fill="#22d3ee" opacity="0.9"/>
  <path d="M76 108c0 0 8 20 20 20s20-20 20-20H76z" fill="#2dd4bf" opacity="0.7"/>
  <circle cx="86" cy="82" r="3" fill="#070b16"/>
  <circle cx="106" cy="82" r="3" fill="#070b16"/>
  <text x="96" y="160" text-anchor="middle" font-family="sans-serif" font-size="28" font-weight="bold" fill="#22d3ee">UP</text>
</svg>
